<svg xmlns="http://www.w3.org/2000/svg" width="99" height="106" viewBox="0 0 99 106">
    <g fill="none" fill-rule="evenodd">
        <g>
            <g transform="translate(-134 -228) translate(134 228)">
                <circle cx="49" cy="57" r="49" fill="#FFF" fill-rule="nonzero"/>
                <g>
                    <path fill="#FF2482" d="M76.59 10.818c2.991 0 5.416-2.423 5.416-5.406C82.006 2.422 79.581 0 76.59 0c-2.992 0-5.417 2.423-5.417 5.412 0 2.983 2.425 5.406 5.417 5.406zM26.667 47.938l-6.298-9.659c-21.487-16.822-30.184 14.425-4.98 11.437l11.278-1.778zM35.91 38.284c15.792-19.842-15.378-28.882-12.355-1.777l5.253 9.045 7.101-7.268z" transform="translate(7)"/>
                    <path fill="#24AEB1" d="M38.618 88l3.889-17.608-3.89-16.675h-7.946l-9.725-.84L19 60.22v24.33c0 1.899 1.553 3.45 3.453 3.45h16.166zM71.158 84.55V55.646c0-1.06-.872-1.93-1.932-1.93H51.54l-4.624 17.148L51.54 88h16.165c1.9 0 3.454-1.552 3.454-3.45z" transform="translate(7)"/>
                    <path fill="#D90761" d="M35.91 38.284c10.837-13.618-.447-22.15-7.61-17.398 5.904.33 11.016 7.399 3.694 17.56l.861 1.537 3.054-1.699zM20.369 38.279C8.109 28.683.016 34.729 0 41.142c2.55-3.691 8.502-5.448 16.57-.236.325-.503.77-.938 1.332-1.248l2.467-1.379z" transform="translate(7)"/>
                    <path fill="#FF2482" d="M38.618 53.717L51.539 53.717 51.539 88 38.618 88z" transform="translate(7)"/>
                    <path fill="#049194" d="M71.158 62.096v-6.45c0-1.06-.872-1.93-1.932-1.93h-7.794c1.06 0 1.932.87 1.932 1.93V84.55c0 1.899-1.559 3.45-3.459 3.45h7.8c1.9 0 3.453-1.552 3.453-3.45V62.096z" transform="translate(7)"/>
                    <path fill="#FE76A8" d="M15.976 44.01c-.154 0-.31-.026-.462-.082-1.947-.707-3.48-1.126-6.46-1.452-.744-.081-1.28-.75-1.199-1.492.082-.742.75-1.278 1.493-1.197 2.878.315 4.668.719 7.09 1.6.703.255 1.065 1.03.81 1.733-.2.55-.72.89-1.272.89zM29.592 36.6c-.036 0-.072 0-.109-.003-.745-.06-1.3-.71-1.242-1.456.175-2.201 1.207-5.286 2.456-7.334.388-.638 1.22-.84 1.859-.452.638.388.84 1.22.452 1.858-1.02 1.674-1.928 4.372-2.069 6.142-.056.708-.648 1.246-1.347 1.246z" transform="translate(7)"/>
                    <path fill="#E0D2CE" fill-rule="nonzero" d="M61.201 47.314c-.328 0-.657-.12-.917-.359-.55-.506-.584-1.362-.077-1.911 5.793-6.277 4.076-22.813 4.058-22.98-.08-.742.456-1.41 1.2-1.49.743-.08 1.41.457 1.49 1.199.08.729 1.86 17.935-4.759 25.105-.267.289-.63.436-.995.436zM74.916 28.467c-.1 0-.2-.012-.302-.035-.728-.166-1.183-.889-1.018-1.616.03-.131.757-3.258 3.046-6.761 3.049-4.666 7.445-7.796 12.712-9.053.728-.173 1.457.275 1.63 1.002.174.726-.274 1.456-1.001 1.629-4.616 1.101-8.324 3.732-11.022 7.82-2.05 3.107-2.72 5.936-2.726 5.964-.145.625-.703 1.05-1.319 1.05z" transform="translate(7)"/>
                    <path fill="#FECE85" d="M60.183 11.783l2.656-3.199c.546-.619.509-.802-.294-1.002L58.42 6.56c-.467-.116-.494-.241-.724-.619l-2.084-3.477c-.42-.708-.677-.708-1.102 0l-2.084 3.477c-.225.378-.257.503-.724.619l-4.125 1.022c-.798.2-.84.383-.294 1.002l2.66 3.199c.284.34.326.739.29 1.221l-.32 3.954c-.09.818.083.918.85.609l3.626-1.51c.378-.158.971-.158 1.344 0l3.632 1.51c.766.309.934.21.845-.609l-.315-3.954c-.037-.482 0-.88.288-1.221z" transform="translate(7)"/>
                    <path fill="#FDB440" d="M55.213 8.484c-.54 3.461-1.69 6.476-3.08 8.51l2.256-.938c.378-.157.971-.157 1.344 0l3.632 1.51c.766.31.934.21.845-.608l-.315-3.954c-.037-.482 0-.88.289-1.222l2.655-3.198c.546-.619.51-.803-.294-1.002L58.42 6.56c-.467-.116-.493-.242-.724-.62l-2.084-3.476c-.068-.115-.13-.21-.189-.283.2 1.883.147 4.043-.21 6.303z" transform="translate(7)"/>
                    <path fill="#FECE85" d="M86.646 42.872l2.655-3.198c.551-.619.51-.802-.294-1.002l-4.125-1.022c-.462-.116-.493-.242-.719-.619l-2.084-3.477c-.425-.707-.682-.707-1.102 0l-2.089 3.477c-.225.378-.257.504-.719.619l-4.125 1.022c-.803.2-.845.383-.294 1.002l2.656 3.198c.289.341.325.74.289 1.222l-.32 3.949c-.084.823.083.923.85.613l3.626-1.51c.378-.157.971-.157 1.35 0l3.626 1.51c.766.31.934.21.85-.613l-.32-3.949c-.037-.482 0-.88.289-1.222z" transform="translate(7)"/>
                    <path fill="#FDB440" d="M81.68 39.574c-.545 3.46-1.69 6.476-3.085 8.51l2.256-.938c.378-.157.971-.157 1.35 0l3.626 1.51c.766.31.934.21.85-.613l-.32-3.949c-.037-.482 0-.88.289-1.222l2.655-3.198c.551-.619.51-.802-.294-1.002l-4.125-1.022c-.462-.116-.493-.242-.719-.619l-2.083-3.477c-.069-.115-.132-.21-.194-.288.204 1.888.146 4.048-.205 6.308z" transform="translate(7)"/>
                    <path fill="#D90761" d="M82.006 5.412C82.006 2.422 79.58 0 76.59 0c-.987 0-1.91.262-2.709.724 1.622.933 2.709 2.684 2.709 4.687 0 1.998-1.087 3.75-2.709 4.683.798.462 1.722.724 2.709.724 2.991 0 5.416-2.423 5.416-5.406z" transform="translate(7)"/>
                    <path fill="#FECE85" d="M18.28 48.1l8.838-1.678 5.737-6.439-1.842-3.298c-.347-.624-.845-1.107-1.423-1.437-1.112-.634-2.53-.692-3.726-.026l-2.31 1.285-3.185 1.772-2.467 1.38c-1.144.634-1.826 1.782-1.926 2.999-.063.718.084 1.463.462 2.14L18.28 48.1z" transform="translate(7)"/>
                    <path fill="#24AEB1" d="M38.182 49.532l15.462-8.61c1.275-.713 1.737-2.334 1.028-3.608l-2.745-4.918c-.713-1.274-2.335-1.736-3.61-1.023l-12.408 6.911-3.054 1.7v6.439l5.327 3.109zM8.145 66.265l15.462-8.616.441-6.439-5.768-3.11-2.892 1.616-12.575 7c-1.27.708-1.732 2.328-1.023 3.602l2.744 4.924c.71 1.27 2.336 1.73 3.611 1.023z" transform="translate(7)"/>
                    <path fill="#FDB440" d="M31.994 38.447l-.981-1.762c-.347-.624-.845-1.107-1.423-1.437-1.113-.634-2.53-.692-3.726-.026l-2.31 1.285-2.193 1.222c1.196-.666 2.608-.609 3.726.026.577.33 1.076.818 1.422 1.437l1.843 3.303 4.503-2.512-.86-1.536z" transform="translate(7)"/>
                    <path fill="#049194" d="M53.644 40.922c1.275-.713 1.737-2.334 1.028-3.608l-2.745-4.918c-.713-1.274-2.335-1.736-3.61-1.023l-6.204 3.456c1.275-.713 2.897-.252 3.606 1.022l2.745 4.919c.708 1.274.251 2.89-1.013 3.602l6.193-3.45z" transform="translate(7)"/>
                    <path fill="#FF2482" d="M38.182 49.532l-5.327-9.549-14.575 8.118 5.327 9.548c4.865-2.71 9.71-5.406 14.575-8.117z" transform="translate(7)"/>
                </g>
            </g>
        </g>
    </g>
</svg>
