<svg xmlns="http://www.w3.org/2000/svg" xmlns:xlink="http://www.w3.org/1999/xlink" width="48" height="48" viewBox="0 0 48 48">
    <defs>
        <linearGradient id="b" x1="0%" y1="0%" y2="100%">
            <stop offset="0%" stop-color="#4AD7D9"/>
            <stop offset="100%" stop-color="#24AEB1"/>
        </linearGradient>
        <circle id="a" cx="24" cy="24" r="24"/>
        <linearGradient id="d" x1="50%" x2="54.595%" y1="23.068%" y2="68.963%">
            <stop offset="0%" stop-color="#FFF" stop-opacity=".7"/>
            <stop offset="100%" stop-color="#FFF"/>
        </linearGradient>
        <linearGradient id="e" x1="88.91%" x2="66.952%" y1="62.66%" y2="22.708%">
            <stop offset="0%" stop-color="#FFF"/>
            <stop offset="100%" stop-color="#FFF" stop-opacity=".64"/>
        </linearGradient>
        <linearGradient id="f" x1="15.638%" x2="41.022%" y1="94.139%" y2="50%">
            <stop offset="0%" stop-color="#FFF" stop-opacity=".7"/>
            <stop offset="100%" stop-color="#FFF"/>
        </linearGradient>
    </defs>
    <g fill="none" fill-rule="evenodd">
        <mask id="c" fill="#fff">
            <use xlink:href="#a"/>
        </mask>
        <use fill="url(#b)" xlink:href="#a"/>
        <g mask="url(#c)">
            <path fill="url(#d)" d="M11.002 20.885h-6.35a3.967 3.967 0 1 1 0-7.934h21.832a3.364 3.364 0 0 1 3.365 3.365v1.687L30 20.885H11.002z" opacity=".987" transform="translate(6 5)"/>
            <path fill="url(#d)" d="M27.975 21.373H1.643A1.63 1.63 0 0 1 0 19.754V1.87A1.63 1.63 0 0 1 1.643.251h26.332c.905 0 1.64.725 1.64 1.618v17.885a1.63 1.63 0 0 1-1.64 1.619" opacity=".987" transform="rotate(-60 31.83 6.83)"/>
            <path fill="url(#e)" d="M0 6.787h29.616V2.766H0z" transform="rotate(-60 31.83 6.83)"/>
            <path fill="#2EB9BC" d="M35.463 18.558c1.444.834 1.928 2.697 1.082 4.163-.847 1.466-2.702 1.978-4.146 1.145-1.444-.834-1.928-2.697-1.081-4.163.846-1.466 2.701-1.979 4.145-1.145" opacity=".513"/>
            <path fill="#2EB9BC" d="M37.25 15.464c1.443.834 1.928 2.696 1.082 4.16-.846 1.467-2.702 1.979-4.145 1.145-1.444-.834-1.928-2.696-1.081-4.163.845-1.463 2.7-1.976 4.144-1.142" opacity=".513"/>
            <path fill="#2EB9BC" d="M22.757 29.502l-2.297 3.98a.508.508 0 0 1-.692.19.508.508 0 0 1-.18-.694l2.297-3.98a.509.509 0 0 1 .692-.19c.24.138.321.45.18.694M26.076 23.754l-2.298 3.98a.508.508 0 0 1-.691.19.509.509 0 0 1-.18-.694l2.297-3.98a.508.508 0 0 1 .691-.19c.241.138.322.45.18.694M22.893 34.296l-.256.442a.508.508 0 0 1-.692.191.508.508 0 0 1-.18-.694l.256-.443a.506.506 0 0 1 .69-.188c.24.139.323.448.182.692M24.423 31.644l-.51.883a.508.508 0 0 1-.69.191.508.508 0 0 1-.181-.694l.51-.883a.508.508 0 0 1 .691-.191c.24.139.321.45.18.694M25.7 29.433l-.254.44a.508.508 0 0 1-.692.191.508.508 0 0 1-.18-.694l.254-.44a.508.508 0 0 1 .692-.191c.24.139.321.45.18.694M27.232 26.78l-.51.882a.508.508 0 0 1-.691.191.508.508 0 0 1-.18-.694l.51-.883a.508.508 0 0 1 .69-.191c.241.139.322.45.181.694"/>
            <path fill="url(#e)" d="M14.297 12.823a.55.55 0 0 1-.362-.145.52.52 0 0 1-.146-.359c0-.13.054-.26.146-.355a.54.54 0 0 1 .726 0 .521.521 0 0 1 .147.355.53.53 0 0 1-.147.36.555.555 0 0 1-.364.144" transform="rotate(-60 31.83 6.83)"/>
            <path fill="url(#f)" d="M33.849 24.25v15.7a3.364 3.364 0 0 1-3.365 3.366H4.651a3.967 3.967 0 0 1-3.967-3.968v-22.43a3.967 3.967 0 0 0 3.967 3.967h25.833a3.365 3.365 0 0 1 3.365 3.365z" opacity=".987" transform="translate(6 5)"/>
            <path fill="url(#d)" d="M5.006 20.885v22.43h-.355a3.967 3.967 0 0 1-3.967-3.967v-22.43a3.967 3.967 0 0 0 3.967 3.967h.355z" opacity=".987" transform="translate(6 5)"/>
            <path fill="#2EB9BC" d="M36.019 36.922a2.6 2.6 0 1 1-5.199 0 2.6 2.6 0 0 1 5.199 0z"/>
        </g>
    </g>
</svg>
