<svg xmlns="http://www.w3.org/2000/svg" width="48" height="48" viewBox="0 0 48 48">
    <defs>
        <linearGradient id="d52i07pn8a" x1="0%" x2="100%" y1="0%" y2="100%">
            <stop offset="0%" stop-color="#93CF5F"/>
            <stop offset="100%" stop-color="#63BB17"/>
        </linearGradient>
        <linearGradient id="ybo0snocib" x1="50%" x2="54.595%" y1="26.604%" y2="66.473%">
            <stop offset="0%" stop-color="#FFF" stop-opacity=".7"/>
            <stop offset="100%" stop-color="#FFF"/>
        </linearGradient>
        <linearGradient id="4mgjmjhmtc" x1="50%" x2="54.595%" y1="23.068%" y2="68.963%">
            <stop offset="0%" stop-color="#FFF" stop-opacity=".7"/>
            <stop offset="100%" stop-color="#FFF"/>
        </linearGradient>
        <linearGradient id="urfb5z8lzd" x1="50%" x2="54.595%" y1="41.472%" y2="56.005%">
            <stop offset="0%" stop-color="#FFF" stop-opacity=".7"/>
            <stop offset="100%" stop-color="#FFF"/>
        </linearGradient>
    </defs>
    <g fill="none" fill-rule="evenodd">
        <g>
            <g>
                <g>
                    <g transform="translate(-285 -184) translate(8 168) translate(268 16) translate(9)">
                        <circle cx="24" cy="24" r="24" fill="url(#d52i07pn8a)"/>
                        <g opacity=".987">
                            <path fill="url(#ybo0snocib)" d="M18.528 15.904l2.348-2.234-3.272-.464c-.378-.054-.708-.29-.88-.632l-1.49-2.945-1.488 2.945c-.173.342-.503.578-.882.632l-3.271.464 2.348 2.234c.284.272.414.666.347 1.052l-.561 3.19 2.972-1.526c.336-.172.734-.172 1.07 0l2.973 1.525-.561-3.19c-.067-.385.063-.78.347-1.05z" transform="translate(9 8)"/>
                            <path fill="url(#4mgjmjhmtc)" d="M15.234 0C6.834 0 .001 6.834.001 15.234s6.834 15.233 15.233 15.233c8.4 0 15.234-6.834 15.234-15.233C30.468 6.834 23.634 0 15.234 0zm9.011 13.7L20.6 17.168l.86 4.893c.166.95-.831 1.691-1.69 1.245l-4.535-2.327-4.534 2.327c-.857.44-1.857-.288-1.69-1.245l.86-4.893-3.646-3.47c-.709-.676-.323-1.873.643-2.01l5.063-.718 2.259-4.469c.398-.79 1.693-.79 2.091 0l2.26 4.469 5.062.719c.966.136 1.352 1.333.643 2.01z" transform="translate(9 8)"/>
                            <path fill="url(#urfb5z8lzd)" d="M15.234 32.811c-2.962 0-5.751-.744-8.202-2.043v8.058c0 .938 1.05 1.493 1.821.975l6.381-4.253 6.381 4.253c.776.518 1.822-.038 1.822-.975v-8.058c-2.451 1.3-5.24 2.043-8.203 2.043z" transform="translate(9 8)"/>
                        </g>
                    </g>
                </g>
            </g>
        </g>
    </g>
</svg>
